/* XPM */
static char *output_onlinepngtools1703792844[] = {
/* columns rows colors chars-per-pixel */
"64 64 102 2 ",
"   c None",
".  c #6C5C67",
"X  c #6C5D67",
"o  c #6D5D67",
"O  c #6C5C68",
"+  c #6C5D68",
"@  c #6D5D68",
"#  c #6C5C69",
"$  c #6D5C69",
"%  c #6C5F6A",
"&  c #705E69",
"*  c #6D616A",
"=  c #6C616B",
"-  c #6D626B",
";  c #6F656B",
":  c #6B656E",
">  c #6B676E",
",  c #6B676F",
"<  c #72606A",
"1  c #79636C",
"2  c #7E656D",
"3  c #7F676E",
"4  c #706A6E",
"5  c #716C6F",
"6  c #7D696E",
"7  c #74716E",
"8  c #6B6870",
"9  c #6D6A70",
"0  c #6E6B70",
"q  c #716970",
"w  c #706D70",
"e  c #706E70",
"r  c #716F70",
"t  c #756E70",
"y  c #7C6C70",
"u  c #7E6D70",
"i  c #6B7176",
"p  c #6A787A",
"a  c #6A797B",
"s  c #6B7A7B",
"d  c #727170",
"f  c #7C7576",
"g  c #717976",
"h  c #747D75",
"j  c #757D77",
"k  c #806B70",
"l  c #816B70",
"z  c #826D70",
"x  c #827B77",
"c  c #947073",
"v  c #907374",
"b  c #A17677",
"n  c #A57C7A",
"m  c #77867B",
"M  c #78877C",
"N  c #77897D",
"B  c #7F9B7F",
"V  c #9E827B",
"C  c #80947A",
"Z  c #A1847D",
"A  c #AA807C",
"S  c #AB887F",
"D  c #6A8180",
"F  c #6A8482",
"G  c #6E8680",
"H  c #6F8582",
"J  c #698A86",
"K  c #7B8480",
"L  c #718A80",
"P  c #728E82",
"I  c #778F81",
"U  c #7A8D86",
"Y  c #739081",
"T  c #7B9481",
"R  c #729987",
"E  c #7E9B83",
"W  c #7C9984",
"Q  c #7FA288",
"!  c #9D8B81",
"~  c #9D8E83",
"^  c #889381",
"/  c #819884",
"(  c #AF8E81",
")  c #B78780",
"_  c #BB8D82",
"`  c #A29081",
"'  c #A39484",
"]  c #B39083",
"[  c #BC9585",
"{  c #86A780",
"}  c #83A985",
"|  c #86AD84",
" . c #80A78A",
".. c #84A68A",
"X. c #8CA188",
"o. c #8DA58A",
"O. c #85B086",
"+. c #A7A28A",
"@. c #C09786",
"#. c #C29987",
"$. c #C49D89",
"%. c #C59F8A",
/* pixels */
"                                                                                                                                ",
"                                                                                                                                ",
"                                                                                                                                ",
"                                                                                                                                ",
"                                                                                                                                ",
"                                                                                                                                ",
"                                                                                                                                ",
"                                                                                                                                ",
"                                                                                                                                ",
"                                                                                                                                ",
"                                                                                                                                ",
"                                                                                                                                ",
"                                                                                                                                ",
"                                                                                                                                ",
"                                                                                                                                ",
"                                                                                                                                ",
"                                                                                                                                ",
"                                                                                                                                ",
"                                                                                                                                ",
"                                                                                                                                ",
"                                                                                                                                ",
"                                                                                                                                ",
"                                                                                                                                ",
"                                                                                                                                ",
"                                                                                                                                ",
"                                                                                                                                ",
"                                                                                                                                ",
"                                                                                                                                ",
"                                                                                                                                ",
"                                                                                                                                ",
"                                                                o O O o                                                         ",
"                                                                k 6 < O                                                         ",
"                                                            # u Z V 6 O                                                         ",
"                                                            : f ~ ! y .                                                         ",
"                                                        o 8 m F U K q o o o                                                     ",
"                                                        o 0 N R R P g 4 * O                                                     ",
"                                                        # 7 E O.O.} E M 4 O                                                     ",
"                                                        o 7 B C | } E M 4 O                                                     ",
"                                                          ; 7 j Y P g e *                                                       ",
"                                                          O . 9 G G 0 O O                                                       ",
"                                                            O e I I e O                                                         ",
"                                                            O d T T e O                                                         ",
"                                                            O e T T e O                                                         ",
"                                                            e j W W j e                                                         ",
"                                                        o e N W  . .W M e O                                                     ",
"                                                        e j W  . . . .W j d                                                     ",
"                                                    o e N W Q  . . . . .W M e O                                                 ",
"                                                    O t ^ X./ E ^ o... . .T d #                                                 ",
"                                                    O u ` ' x x ' +.o. . .T d O                                                 ",
"                                                    O z ( ( z 6 V ` ^ W  .T e O                                                 ",
"                                                    O z ( ( z < 6 u t j T T e O                                                 ",
"                                                    O z ] ] v 2 2 1 & e I I e O                                                 ",
"                                                    O z ] [ A b b c 1 9 G G 9 O                                                 ",
"                                                    O z ( #._ ) ) n k 8 D D 8 O                                                 ",
"                                                    O z ( $.#.[ [ ( l : D D 8 O                                                 ",
"                                                    O z ( %.%.%.$.( z 8 D D 8 O                                                 ",
"                                                    O z ( %.%.$.$.( l 8 D D 8 O                                                 ",
"                                                    O y V ( ( ( ( V y 8 D D 8 O                                                 ",
"                                                    O < y z z z z 6 & 8 D D 8 O                                                 ",
"                                                    O O : 8 8 8 8 8 9 i F D 8 O                                                 ",
"                                                    O : p D D D D D D D J F 8 O                                                 ",
"                                                    O : a D D D D D D D D p : .                                                 ",
"                                                      * 9 8 8 8 8 8 9 8 9 : *                                                   ",
"                                                      O O O O O O O O O O O O                                                   "
};
