/* XPM */
static char *result[] = {
/* columns rows colors chars-per-pixel */
"64 64 185 2 ",
"   c #3D3E2F",
".  c #393E32",
"X  c #4D0001",
"o  c #510003",
"O  c #5D1E1F",
"+  c #5C1F24",
"@  c #5F2122",
"#  c #612325",
"$  c #6F3C3B",
"%  c #3C463B",
"&  c #3E493F",
"*  c #454636",
"=  c #474837",
"-  c #4B4A36",
";  c #464739",
":  c #484739",
">  c #464839",
",  c #4C4D3C",
"<  c #524E37",
"1  c #524F38",
"2  c #4F503D",
"3  c #51513D",
"4  c #5A553C",
"5  c #5E5A3C",
"6  c #63593D",
"7  c #6A643F",
"8  c #464E41",
"9  c #4B4F41",
"0  c #455244",
"q  c #4D5041",
"w  c #635D41",
"e  c #71494B",
"r  c #6A6444",
"t  c #706743",
"y  c #736B47",
"u  c #7E734C",
"i  c #636B55",
"p  c #6B6E64",
"a  c #6E7268",
"s  c #9F272D",
"d  c #932B30",
"f  c #82393C",
"g  c #9B3537",
"h  c #A32A2D",
"j  c #AD292C",
"k  c #A4272D",
"l  c #B4262A",
"z  c #BB2429",
"x  c #BE292D",
"c  c #BC2027",
"v  c #BD2E33",
"b  c #AC3638",
"n  c #BD3032",
"m  c #B53B3E",
"M  c #B1373B",
"N  c #CC262B",
"B  c #C62A2D",
"V  c #CE292D",
"C  c #C32528",
"Z  c #D1262D",
"A  c #D0282D",
"S  c #C42E31",
"D  c #CC2C32",
"F  c #D02830",
"G  c #C93235",
"H  c #C5353A",
"J  c #CA3639",
"K  c #C6393D",
"L  c #C8383C",
"P  c #C73437",
"I  c #BA3E42",
"U  c #914448",
"Y  c #A84148",
"T  c #83774B",
"R  c #887D52",
"E  c #966A6B",
"W  c #996A6C",
"Q  c #9B7475",
"!  c #9F7876",
"~  c #BB6F6F",
"^  c #BD7C7E",
"/  c #CA494C",
"(  c #CC4448",
")  c #CF5459",
"_  c #CF5A5D",
"`  c #CF6363",
"'  c #D26667",
"]  c #D16B6C",
"[  c #D36568",
"{  c #CE6B72",
"}  c #CE7978",
"|  c #D1737A",
" . c #7A897D",
".. c #8D8153",
"X. c #928351",
"o. c #9C8C56",
"O. c #99885A",
"+. c #9F905B",
"@. c #A3935C",
"#. c #AA985F",
"$. c #AE9B62",
"%. c #A89761",
"&. c #B09E63",
"*. c #BCA567",
"=. c #B7A465",
"-. c #C2AC6A",
";. c #C0A967",
":. c #CCB36D",
">. c #C6B06B",
",. c #D9BD6F",
"<. c #D1B86E",
"1. c #D7BB70",
"2. c #DEC273",
"3. c #D4C177",
"4. c #E0C26F",
"5. c #E2C673",
"6. c #E6CA77",
"7. c #EACC76",
"8. c #EECF79",
"9. c #E3C97C",
"0. c #EFD179",
"q. c #F4D57B",
"w. c #FDDD7E",
"e. c #F8D87D",
"r. c #989C94",
"t. c #888E86",
"y. c #A78584",
"u. c #BC8C8C",
"i. c #9EACA4",
"p. c #AAADA9",
"a. c #B6A9A9",
"s. c #B2B2AA",
"d. c #BCBDBD",
"f. c #B6B8B9",
"g. c #C88E8F",
"h. c #CE8585",
"j. c #D48B8C",
"k. c #CB8E91",
"l. c #C48E91",
"z. c #C99695",
"x. c #D09290",
"c. c #C8A8A9",
"v. c #DEA9A9",
"b. c #C6B5B4",
"n. c #CAB5B5",
"m. c #C8C38D",
"M. c #D1C388",
"N. c #D3CC90",
"B. c #DED99C",
"V. c #CBC996",
"C. c #EDD88D",
"Z. c #F5D683",
"A. c #F6DD82",
"S. c #FCDE82",
"D. c #F7DF8C",
"F. c #EDDF94",
"G. c #E3DD9C",
"H. c #E7DA92",
"J. c #F1DE92",
"K. c #EEE28E",
"L. c #FAE083",
"P. c #F7E08C",
"I. c #ECE095",
"U. c #E5E096",
"Y. c #F2E091",
"T. c #E5DDA1",
"R. c #DDE4A5",
"E. c #DDC5C7",
"W. c #DEDEDC",
"Q. c #EFCCCC",
"!. c #E5C6C8",
"~. c #F0CCCC",
"^. c #D9E4E1",
"/. c #EDEDED",
"(. c #E5E8E9",
"). c #F4EDEC",
"_. c #F2F2EE",
"`. c #EBF4F4",
"'. c #F3F4F4",
"]. c #F9F3F4",
"[. c #F1F8F7",
"{. c #F6FCFB",
"}. c #FEFFFF",
"|. c #F2F7F8",
" X c None",
/* pixels */
" X X X X X X X X X X X X X X X X X X X X X X X X X X X X X X X X X X X X X X X X X X X X X X X X X X X X X X X X X X X X X X X X",
" X X X X X X X X X X X X X X X X X X X X X X X X X X X X X X Xf  X X X X X X X X X X X X X X X X X X X X X X X X X X X X X X X X",
" X X X X X X X X X X X X X X X X X X X X X X X X X X X X X Xg h  X X X X X X X X X X X X X X X X X X X X X X X X X X X X X X X X",
" X X X X X X X X X X X X X X X X X X X X X X X X X X X X Xv N B x d  X X X X X X X X X X X X X X X X X X X X X X X X X X X X X X",
" X X X X X X X X X X X X X X X X X X X X X X X X X X X X^ ] ] ] ] ~  X X X X X X X X X X X X X X X X X X X X X X X X X X X X X X",
" X X X X X X X X X X X X X X X X X X X X X X X X X X X X_.].].].].).^. X X X X X X X X X X X X X X X X X X X X X X X X X X X X X",
" X X X X X X X X X X X X X X X X X X X X X X X X X X X X{.}.}.}.].r.i. X X X X X X X X X X X X X X X X X X X X X X X X X X X X X",
" X X X X X X X X X X X X X X X X X X X X X X X X X X X X{.}.}.}.`.a  . X X X X X X X X X X X X X X X X X X X X X X X X X X X X X",
" X X X X X X X X X X X X X X X X X X X X X X X X X X X X(./././.W.p  . X X X X X X X X X X X X X X X X X X X X X X X X X X X X X",
" X X X X X X X X X X X X X X X X X X X X X X X X X X X Xf.f.d.d.f.t.t. X X X X X X X X X X X X X X X X X X X X X X X X X X X X X",
" X X X X X X X X X X X X X X X X X X X X X X X X X X X Xf.d.d.d.d.d.p. X X X X X X X X X X X X X X X X X X X X X X X X X X X X X",
" X X X X X X X X X X X X X X X X X X X X X X X X X X Xa.b.b.b.b.n.n.a.a. X X X X X X X X X X X X X X X X X X X X X X X X X X X X",
" X X X X X X X X X X X X X X X X X X X X X X X X X X XU b I I b Y M g e  X X X X X X X X X X X X X X X X X X X X X X X X X X X X",
" X X X X X X X X X X X X X X X X X X X X X X X X X X X XC C C C A C k  X X X X X X X X X X X X X X X X X X X X X X X X X X X X X",
" X X X X X X X X X X X X X X X X X X X X X X X X X X X XD N Z V Z A j  X X X X X X X X X X X X X X X X X X X X X X X X X X X X X",
" X X X X X X X X X X X X X X X X X X X X X X X X X X XY L L L L J J m  X X X X X X X X X X X X X X X X X X X X X X X X X X X X X",
" X X X X X X X X X X X X X X X X X X X X X X X X X X XE.Q.Q.Q.Q.~.~.!. X X X X X X X X X X X X X X X X X X X X X X X X X X X X X",
" X X X X X X X X X X X X X X X X X X X X X X X X X X X`.}.}.}.}.}.}.`. X X X X X X X X X X X X X X X X X X X X X X X X X X X X X",
" X X X X X X X X X X X X X X X X X X X X X X X X X X X`.}.}.}.}.}.}.`. X X X X X X X X X X X X X X X X X X X X X X X X X X X X X",
" X X X X X X X X X X X X X X X X X X X X X X X X X X X|.}.}.}.}.}.}.|. X X X X X X X X X X X X X X X X X X X X X X X X X X X X X",
" X X X X X X X X X X X X X X X X X X X X X X X X X X X|.}.}.}.}.}.}.'. X X X X X X X X X X X X X X X X X X X X X X X X X X X X X",
" X X X X X X X X X X X X X X X X X X X X X X X X X X X{.}.}.}.}.}.}.[. X X X X X X X X X X X X X X X X X X X X X X X X X X X X X",
" X X X X X X X X X X X X X X X X X X X X X X X X X X X!.~.Q.~.Q.~.Q.!. X X X X X X X X X X X X X X X X X X X X X X X X X X X X X",
" X X X X X X X X X X X X X X X X X X X X X X X X X X XK J G P J G J H g  X X X X X X X X X X X X X X X X X X X X X X X X X X X X",
" X X X X X X X X X X X X X X X X X X X X X X X X X X XS A D { h./ V C s  X X X X X X X X X X X X X X X X X X X X X X X X X X X X",
" X X X X X X X X X X X X X X X X X X X X X X X X X X XD Z ) y.e h.D N h  X X X X X X X X X X X X X X X X X X X X X X X X X X X X",
" X X X X X X X X X X X X X X X X X X X X X X X X X X XB A / u.! } V B h  X X X X X X X X X X X X X X X X X X X X X X X X X X X X",
" X X X X X X X X X X X X X X X X X X X X X X X X X X XB A V / _ G A C j  X X X X X X X X X X X X X X X X X X X X X X X X X X X X",
" X X X X X X X X X X X X X X X X X X X X X X X X X X XB A A Z Z V A V j  X X X X X X X X X X X X X X X X X X X X X X X X X X X X",
" X X X X X X X X X X X X X X X X X X X X X X X X X X XV V A A A A V N j  X X X X X X X X X X X X X X X X X X X X X X X X X X X X",
" X X X X X X X X X X X X X X X X X X X X X X X X X Xn V A A A D A V V j  X X X X X X X X X X X X X X X X X X X X X X X X X X X X",
" X X X X X X X X X X X X X X X X X X X X X X X X X Xn D A V V A A A V j  X X X X X X X X X X X X X X X X X X X X X X X X X X X X",
" X X X X X X X X X X X X X X X X X X X X X X X X X Xv V V V A A V A V l  X X X X X X X X X X X X X X X X X X X X X X X X X X X X",
" X X X X X X X X X X X X X X X X X X X X X X X X X XS A A A A A V A B l  X X X X X X X X X X X X X X X X X X X X X X X X X X X X",
" X X X X X X X X X X X X X X X X X X X X X X X X X Xn A A V D G A V B z  X X X X X X X X X X X X X X X X X X X X X X X X X X X X",
" X X X X X X X X X X X X X X X X X X X X X X X X X XS A V ) x.z.} J A z  X X X X X X X X X X X X X X X X X X X X X X X X X X X X",
" X X X X X X X X X X X X X X X X X X X X X X X X X XB V ( z.$ + Q | V z  X X X X X X X X X X X X X X X X X X X X X X X X X X X X",
" X X X X X X X X X X X X X X X X X X X X X X X X X XB A ' W X o # k.D z h  X X X X X X X X X X X X X X X X X X X X X X X X X X X",
" X X X X X X X X X X X X X X X X X X X X X X X X X XB V ] W X X # g.S z h  X X X X X X X X X X X X X X X X X X X X X X X X X X X",
" X X X X X X X X X X X X X X X X X X X X X X X X X XV N ] W X X # k.G z k  X X X X X X X X X X X X X X X X X X X X X X X X X X X",
" X X X X X X X X X X X X X X X X X X X X X X X X X XA N [ W X X # g.D z k  X X X X X X X X X X X X X X X X X X X X X X X X X X X",
" X X X X X X X X X X X X X X X X X X X X X X X X X XB N ' E X X O g.S c s  X X X X> , 0 0  X X X X X X X X X X X X X X X X X X X",
" X X X X X X X X X X X X X X X X X Xq >  X X X X Xc.j.j.v.c.Q Q y.E.j.h.l. X X; ; ; , 3 2 2 0  X X X X X X X X X X X X X X X X X",
" X X X X X X X X X X X X X X, 0 2 q q , > > > %  Xs.a.s.s.s.s.s.s.s.s.s.s.r.; ; ; ; , 3 2 2 2  X X X X X X X X X X X X X X X X X",
" X X X X X X X X X X X X0 , = , 2 2 q , = > ; ; , 2 2 2 2 , , 3 2 , 2 , 2 2 , , ; ; , 2 , 3 > &  X X X X X X X X X X X X X X X X",
" X X X X X X X X X X X0 2 , = ; : 2 3 2 , ; = ; : 2 2 q 2 , , , 2 3 , 2 2 3 q , > ; > 2 2 , ; &  X X X X X X X X X X X X X X X X",
" X X X X X X X X X X X8 , , ; ; : , 2 2 , - ; ; , 2 2 , : ; > 9 q , > , 2 3 2 q , ; ; , 3 - = ;  X X X X X X X X X X X X X X X X",
" X X X X X X X X X X X8 ; , , ; ; , 3 q , = ; ; , 2 q , ; ; , , , ; ; , 2 2 2 2 , , , 2 2 > > ;  X X X X X X X X X X X X X X X X",
" X X X X X X X X X X X9 > , = ; ; , , 3 2 , ; ; , 2 2 , ; ; , , ; ; ; , , 2 2 2 2 2 3 , , ; * * %  X X X X X X X X X X X X X X X",
" X X X X X X X X X X X0 > , , ; , = , 3 q , ; ; , q 2 , ; , 2 , * ; ; ; , 2 2 2 2 2 2 , ;   . .  X X X X X X X X X X X X X X X X",
" X X X X X X X X X; > , = = ; ; , , 2 3 3 3 , ; , 2 q , = = 2 2 = ; ; ; , , 3 2 2 2 2 , ; ; *  X X X X X X X X X X X X X X X X X",
" X X X X X X X0 , , ; > , , ; , , 2 2 , 2 q , ; 2 2 2 , = = 2 2 2 = ; ; , 2 3 , 2 2 , : ; ; ;  X X X X X X X X X X X X X X X X X",
" X X X X X X X, , , , , ; , = , 2 3 , ; , q 3 = , 2 2 3 , = - 2 2 1 , 2 2 3 2 2 2 q , ; ; ; * >  X X X X X X X X X X X X X X X X",
" X X X X X X X1 ; - 2 , * = - , 3 2 , ; : q 2 , 2 2 2 2 , ; 2 3 2 2 2 2 3 2 2 2 3 , , , , , , , 8  X X X X X X X X X X X X X X X",
" X X X X X X X0 > 2 2 , , , ; , , 2 , : , , 2 2 1 2 2 2 > > 2 3 2 2 2 2 2 2 3 q 2 3 , , , , ; ; ; > , ; > > 8  X X X X X X X X X",
" X X X X X X X X2 2 3 2 , , ; * , 2 3 , , 3 2 2 3 3 2 2 , = 2 , 2 , > = , , q , 2 , , : ; ; ; ; ; ; ; ; : : ; &  X X X X X X X X",
" XG.B.V. X X0 , , , , , - 2 , * ; = 2 , q 2 3 3 2 2 2 2 2 2 q 2 2 , ; ; ; ; , , 2 2 = ; ; ; - - ; * : ; ; ; ; ; i m.N.B.G.G.T. X",
"J.L.S.9.T r r 5 4 < - - = 1 - 4 y R T r 6 4 3 1 - 2 2 2 1 3 3 5 w 4 < = * * * * , 2 4 5 4 1 < < - - - = * * * * w :.4.8.S.w.L.I.",
"T.I.I.H.M.3.1.<.>.-.*.$.%.+.#.:.9.7.2.1.-.=.@.X.u t t u ..+.&.*.:.>.*.$.o.R u 7 7 X.;.1.<.:.-.;.*.=.&.$.@.o.o.X.X.:.C.C.J.J.I. X",
" X X X X XU.A.S.e.e.q.q.8.8.q.e.w.S.e.e.q.7.5.5.2.4.2.6.0.q.q.w.q.q.q.7.7.7.4.,.,.7.q.e.w.w.w.e.e.e.e.e.e.e.Z.Z.q.Z. X X X X X X",
" X X X X X XJ.S.S.L.L.L.S.S.S.S.S.L.S.L.S.S.A.A.w.L.w.w.w.w.w.w.w.w.w.w.w.e.e.w.w.w.w.w.w.w.L.w.w.w.L.L.S.L.S.L.S.K. X X X X X X",
" X X X X X X X X X X X X X X X X X X X X X X X XG.U.L.w.w.L.L.w.L.w.w.w.w.w.w.w.L.w.w.w.w.L.w.w.w.L.U. X X X X X X X X X X X X X",
" X X X X X X X X X X X X X X X X X X X X X X X X X XI.w.w.w.w.w.w.w.w.w.w.w.w.w.w.w.w.w.w.w.w.w.S.F. X X X X X X X X X X X X X X",
" X X X X X X X X X X X X X X X X X X X X X X X X X XR.P.P.P.P.P.P.P.P.P.P.P.D.D.P.P.P.P.P.P.J.P.Y. X X X X X X X X X X X X X X X"
};
