/* XPM */
static char *water1703791770[] = {
/* columns rows colors chars-per-pixel */
"64 64 15 1 ",
"  c #6AB7D7",
". c #6EB8D6",
"X c #70BAD7",
"o c #75BBD4",
"O c #79BCD3",
"+ c #7BBED4",
"@ c #7DBFD7",
"# c #8CC3CF",
"$ c #97C7CC",
"% c #9ECBCF",
"& c #80C0D6",
"* c #83C2D7",
"= c #A2CFD6",
"- c #ADD3D4",
"; c #B5D7D6",
/* pixels */
"                                                                ",
"                                                                ",
"                                                                ",
"                                                                ",
"                                                                ",
"                                                                ",
"                                                                ",
"                                                                ",
"                                                                ",
"                 .oo..oo.                                       ",
"                 o##oo##o                                       ",
"                 o##oo##o                                       ",
"                 .oo..oo.                                       ",
"                                                                ",
"                                                                ",
"                                                           Xo+&&",
"                                                           o#%-;",
"                                                           o#%-;",
"                                                           .o+&&",
"                                                                ",
"                                                                ",
"                                                                ",
"                                                                ",
"O+&&+o.                                                         ",
"$%--%#o                                                         ",
"$%--%#o                                                         ",
"O+&&+o.                                                         ",
"                                                                ",
"                                                                ",
"                                                                ",
"                                                                ",
"                                                                ",
"                                                                ",
"                                                                ",
"                                                                ",
"                                                                ",
"                                                                ",
"                                                                ",
"                                                                ",
"       X+&+OOo..ooX                                             ",
"       @=-%$$#oo##o                                             ",
"       @=-%$$#oo##o                                             ",
"       X+*+OOo..oo.                                             ",
"                                                                ",
"                                                                ",
"                                                                ",
"                                                                ",
"                                                                ",
"                                                                ",
"                                                                ",
"                                                                ",
"                                                                ",
"                                                                ",
"                                                                ",
"                                                                ",
"                                                                ",
"                                                                ",
"                                                                ",
"                                                                ",
"                                                                ",
"                                                                ",
"                                                                ",
"                                                                ",
"                                                                "
};
