/* XPM */
static char *xpm__y3TKT__1___1_1703798727[] = {
/* columns rows colors chars-per-pixel */
"64 59 206 2 ",
"   c None",
".  c #030201",
"X  c #0A0604",
"o  c #0E0906",
"O  c #0D0C0A",
"+  c #110905",
"@  c #140D0A",
"#  c #1D0F09",
"$  c #1F0F07",
"%  c #13110F",
"&  c #1D110B",
"*  c #0D0E12",
"=  c #161311",
"-  c #1D1415",
";  c #19191A",
":  c #23140C",
">  c #2B160D",
",  c #2F180E",
"<  c #231611",
"1  c #251913",
"2  c #2B1C14",
"3  c #241619",
"4  c #221A1A",
"5  c #29181B",
"6  c #321E14",
"7  c #381E17",
"8  c #352116",
"9  c #3D2114",
"0  c #35221A",
"q  c #3B2319",
"w  c #3D291D",
"e  c #2A1D23",
"r  c #261C22",
"t  c #371F21",
"y  c #391F20",
"u  c #3C2122",
"i  c #372929",
"p  c #34302F",
"a  c #3C2C34",
"s  c #343435",
"d  c #3C3C3C",
"f  c #3A3737",
"g  c #262A2B",
"h  c #432313",
"j  c #43251B",
"k  c #4A271D",
"l  c #432B1E",
"z  c #4B2C1D",
"x  c #4B2615",
"c  c #512C1B",
"v  c #5A2E1A",
"b  c #552B17",
"n  c #5D301B",
"m  c #52311F",
"M  c #64341D",
"N  c #6A361E",
"B  c #6D381F",
"V  c #432421",
"C  c #492621",
"Z  c #462D25",
"A  c #4C2E23",
"S  c #4F2C29",
"D  c #522E2A",
"F  c #4D3122",
"G  c #533223",
"H  c #5A3624",
"J  c #563926",
"K  c #5D3926",
"L  c #54312A",
"P  c #5B342C",
"I  c #5C392B",
"U  c #553B2A",
"Y  c #493635",
"T  c #56343D",
"R  c #5A373D",
"E  c #5A3637",
"W  c #4C2F35",
"Q  c #6E3921",
"!  c #633C2A",
"~  c #643927",
"^  c #733C23",
"/  c #643933",
"(  c #6E3F34",
")  c #603730",
"_  c #52423B",
"`  c #6C412B",
"'  c #65442F",
"]  c #75432B",
"[  c #7B442C",
"{  c #6C4739",
"}  c #734236",
"|  c #764A33",
" . c #7F4C36",
".. c #764538",
"X. c #7A4A3E",
"o. c #774839",
"O. c #7A5138",
"+. c #3C3E40",
"@. c #5E3C43",
"#. c #613C43",
"$. c #3E4143",
"%. c #464848",
"&. c #59474D",
"*. c #53555B",
"=. c #585757",
"-. c #535355",
";. c #64444A",
":. c #6C4A4E",
">. c #694943",
",. c #744942",
"<. c #6F5040",
"1. c #674A54",
"2. c #6A4C54",
"3. c #6D4F59",
"4. c #6E5058",
"5. c #735153",
"6. c #73545C",
"7. c #7A5759",
"8. c #7C595B",
"9. c #715C55",
"0. c #5C5E63",
"q. c #65676A",
"w. c #747274",
"e. c #844C34",
"r. c #864E3B",
"t. c #8A4F35",
"y. c #8B5136",
"u. c #86533C",
"i. c #8B533D",
"p. c #84553A",
"a. c #92553E",
"s. c #935A3C",
"d. c #9C5D3E",
"f. c #935434",
"g. c #834C2F",
"h. c #A05F3D",
"j. c #8D5440",
"k. c #8D5D41",
"l. c #935641",
"z. c #965943",
"x. c #9A5B44",
"c. c #9F5F48",
"v. c #815A57",
"b. c #A15F48",
"n. c #A05F47",
"m. c #956145",
"M. c #9E6142",
"N. c #9B6448",
"B. c #986453",
"V. c #A26343",
"C. c #A36249",
"Z. c #A9674B",
"A. c #AC6A4B",
"S. c #A66849",
"D. c #A26D56",
"F. c #A77358",
"G. c #B17453",
"H. c #BD7C56",
"J. c #B57859",
"K. c #837A75",
"L. c #A37162",
"P. c #C17B58",
"I. c #BD8159",
"U. c #BB8066",
"Y. c #C4825B",
"T. c #C9825D",
"R. c #CB8A6A",
"E. c #C68465",
"W. c #D78F6A",
"Q. c #D58D67",
"!. c #D9916B",
"~. c #DA936C",
"^. c #E69B6F",
"/. c #9B9C9C",
"(. c #979A9C",
"). c #8C8C8F",
"_. c #989DA3",
"`. c #9CA3A9",
"'. c #A1A5AA",
"]. c #A5ABAD",
"[. c #A8A8A8",
"{. c #A5ACB1",
"}. c #A9AFB2",
"|. c #ACB2B5",
" X c #AEB4B9",
".X c #B2B6BB",
"XX c #B3B8BE",
"oX c #B6B7B9",
"OX c #B7ABAD",
"+X c #C2B9BD",
"@X c #B5BBC2",
"#X c #B7BCC6",
"$X c #C3BDC2",
"%X c #BDC2CB",
"&X c #BFC4D0",
"*X c #C5C0C6",
"=X c #C0C6CF",
"-X c #C4C9D4",
";X c #C8CEDA",
":X c #C5CBD7",
">X c #CDD2DF",
",X c #CED3E1",
"<X c #D1D6E3",
"1X c #D3D9E6",
"2X c #D6DBE9",
"3X c #D9DEEB",
/* pixels */
"                                                    + o                                                                         ",
"                                                  2 | z                                 O                                       ",
"                                                  8 S.~ X                             7 [ x                                     ",
"                                                  8 M.H X                             Z A._ ;                                   ",
"                                        3 #.      8 V.H X       i               ,X<X#X}.+X|.@X<X<X<X                            ",
"                                        6 ,.R     q M.P O     ,.G X               ,X1X3X1X1X1X>X>X<X=X                          ",
"                                        8 d.,.@.W T { Y W @./ z.K X                 ;X:X>X>X>X>X>X<X%X}.                        ",
"                                        6 s.y.u.j.j.j.j.j.u.j.z.G X                 *.w.1X>X>X>X>X<X%XXX<X>X>X                  ",
"              +                           : F s.y.y.y.i.y.s.` < &                     *.2X>X>X>X>X<X%X#X<X,X>X>X                ",
"            8 m o                           @ : 1 1 1 : 1 < &                         *.2X>X>X>X<X-X].#X,X,X%X X                ",
"    ,X      q ! o                           . < ` ` ` ` ] q .                         *.2X>X>X>X<X%X].#X<X-X|.].                ",
"    <X=X    l ` #                           . o I V.N.S.| 4 ;                         *.2X>X>X,X=X|.XX;X>X%X{.                  ",
"    2X'.; 1 ] p.G . .                           ).$XoX*X.X`.#X,X>X                    *.2X,X>X<X%X}.|..X.X|.}.                  ",
"    ,X&X(.p 2 1 :                                 >X<X>X,X3X1X>X,X                    0.<X>X>X%X|.].|.].                        ",
"    ,X<X<X].K.z .                                 _ F.<.q.,X>X,X,X,X                  /..X|..X|.].|.].|.                        ",
"    ,X,X>X=XoXw.;                                 w M.H *.<X,X>X>X>X                   X|.}.|.}.|.].|.                          ",
"    ,X>X<X>X%X`.).                                (.[././..X%X%XXX                    [.|.`.'.|.].|.|.                          ",
"    >X,X>X<X-X|.|.}.].                            }.].].}.}. X X                      _ F.{ d                                   ",
"    >X>X,X>X>X%X|.}.|.|.                          Y F.{ p                             l d.H :                                   ",
"      <X=X}.|.}.'.XX:X;X,X                . 8 s.g.] s.e.] f.c .                   0  . .s.p. .F                                 ",
"          Y B.O.s                           X z M.N.m.m.N.o.- ;                   & : G d.` 1 :                                 ",
"          2 d.K X                               OX*X$X*X*X@X{.%X                    . q V.G .                                   ",
"          2 M.' X                                 ;X>X;X>X1X2X<X>X                    q V.G - #.R R #.#.e                       ",
"          2 d.~ X                                 _ F.>.q.1X>X>X,X>X                  q V.A 6 k.j.u.u.L @                       ",
"          2 d.` .                                 i V.H *.,X>X>X,X>X                  q V.F 8 s.y.s.K &                         ",
"          2 V.~ X                                 /.[./.`. X|.%X,X                    q V.G X & & & %                           ",
"          2 d.` X                               ].`.}.[.].].XX>X                      q V.G .                                   ",
"          2 d.K X                               %._ F.{ s                             q V.G .                                   ",
"  X 1 6 % 2 d.` o 2 1 2 1 2 2 1 2 2 2 <           8 h.H X                             q V.G .                                   ",
"  w I.T.O.2 M.H q I.Y.H.H.H.H.H.H.H.T.k.1         8 V.K X                 1 1 1 1 2 @ 8 V.G X 1 1 1 1 1 2 &                     ",
"  U Q.s.m , M.K 1 y.y.y.y.y.y.y.y.y.e.V.k.1       8 M.H X               ' I.H.H.H.Y.' 8 V.F A Y.H.H.I.H.Y.p.1 2 <               ",
"  J E.:.i 2 M.! - ;.;.;.;.;.;.;.;.;.;.>.V.m.2 2 % 8 M.K X 2 2 2 2 2 - | A.t.y.y.y.f.z 8 V.F 6 f.y.y.y.y.t.N.I.I.p.2 2 8 2 8 2 2 ",
"  J R.6.Y 0 x.I 3 4.4.3.4.4.4.4.3.3.6.;./ c.H.T.| 2 V.G l I.H.H.I.H.H.A.o.;.;.;.;.:.i 6 n.c 4 :.;.;.;.;.#.,.t.y.S.G.G.G.G.G.H.O.",
"  H R.2.1.&.5.W r 2.2.1.1.1.1.1.1.1.1.;.T / t.a.F 6 h.G 2 y.y.y.y.y.t.( @.5.4.4.3.6.a 6 V.m r 6.3.3.3.3.3.5.:.D.z.w Z l w w w 0 ",
"  J R.7.6.8.8.5.2.7.7.7.7.7.7.7.7.7.8.2.T @.;.1.i 6 x.H 3 ;.;.;.;.;.&.E ;.2.1.1.1.3.a q x.G e 3.1.2.2.1.3.L.!.R.I .             ",
"  F ^.!.W.W.W.W.!.W.!.W.W.W.!.W.W.W.!.J.@.@.6.6.a 6 V.H 4 6.3.3.4.4.:.T ;.7.7.7.7.8.4.5.v.5.5.8.7.7.7.5.L.P.Z.Z.A .             ",
"  0 Z.Z.Z.Z.Z.Z.Z.Z.Z.Z.Z.Z.Z.Z.A.Z.C.P.J.#.3.3.a 8 z.J r 2.2.2.1.2.@.@.B.~.W.W.W.W.W.~.W.~.!.W.~.W.W.~.P.C.l.b.H .             ",
"  2 z.l.l.l.l.l.l.l.l.l.l.l.l.l.l.l.l.x.P.H.6.8.5.5.v.5.5.8.7.7.7.8.2.B.P.Z.Z.Z.Z.Z.Z.Z.Z.Z.Z.Z.Z.Z.Z.Z.b.l.x.x.F               ",
"  6 l.x.x.x.x.x.x.x.x.x.l.x.x.x.x.x.x.l.G.^.W.W.W.~.~.~.!.!.!.W.W.W.~.P.b.l.x.x.l.l.l.l.l.l.l.x.z.z.l.l.z.z.b.I @               ",
"  $ g.x.l.x.x.i.l.j.l.x.x.x.l.x.l.j.j.j.z.Z.Z.Z.Z.A.Z.M.b.b.C.Z.Z.Z.Z.b.z.l.r.r.l.x.x.x.x.x.l.j.j.j.l.c.z.z.C.G .               ",
"  # ^ x.x.x...V u u I l.l.x.x.x...V u u P l.l.l.l.l.( 7 t y I l.l.l.l.l.z.! 4 - A a.z.z.z.z.( V y y / l.z.z.b.L .               ",
"  $ [ x.x.X.C j * 5 k P x.z.x.X.C j * 5 k ) x.l.c.} C j = 5 k E c.x.l.c.~ p q.q.+.z x.z.c.( C q * 7 k ) x.z.b.G .               ",
"  $ ] l.b.( 5 = . O - S x.x.x.} 5 = . O - D x.x.x.} 5 % . O 3 L x.x.l.C.m s =.-.%.7 C.z.c.( 3 = . % - P n.a.b.G .               ",
"  : Q [ n...5 = . O - S x.l.x...5 % . O - D x.x.c.} 3 % . O - L x.x.x.x.n f w.q.%.j l.x.x.( 3 @ . O < P n.z.b.L .               ",
"  : M N g...C j * 2 k P x.z.c.} C j O 5 k P x.l.x.} C j * 2 C P x.x.x.P Z Z d -.Z F Z j.N.( C q * 6 C P x.z.z.G                 ",
"    , M ^ z...V t y P j.z.z.z.x.} u t t P l.x.x.x.x.} y y y ) l.x.x.~ p %.& g 9.c d Y A x.z.( y t t / l.z.t.x @                 ",
"    : Q ^ ^ a.r.j.r.j.x.x.l.z.x.l.i.j.j.l.x.x.l.l.x.l.j.j.i.j.x.x.x.l.P f d d -.f %.Z i.x.x.l.j.j.r.l.x.e.B 6                   ",
"    : Q Q Q Q g.x.c.x.z.z.x.z.z.x.x.x.x.x.x.l.x.x.z.z.x.x.x.x.z.l.x.x.x.P s q.q.+.Z i.x.z.z.x.x.x.c.x.e.^ x +                   ",
"    : M Q B N N [ a.l.x.l.x.x.l.z.z.z.z.z.x.x.z.x.z.z.z.z.z.z.z.x.z.x.x.z.P 4 - Z l.c.z.z.x.x.l.l.l.e.Q B 9                     ",
"      > M Q B N B Q [ l.l.x.x.x.z.z.z.x.x.z.z.x.z.x.z.x.z.x.x.x.z.z.x.l.x.l. . .i.x.l.x.x.l.l.e.Q ^ ^ Q 7 +                     ",
"        > M Q B B N N Q [ l.l.l.x.x.z.z.z.z.z.z.z.x.x.z.z.z.z.z.z.z.z.x.x.x.c.c.c.z.l.a.l.e.Q ^ Q N n 9 o                       ",
"          > M B Q B Q N B ^ ^ [ l.a.l.x.x.x.x.x.x.x.x.x.x.x.x.x.x.x.l.l.a.l.a.a.a.l.e.Q ^ ^ Q M M 9 + +                         ",
"            : v N M M N M N N Q ^ Q [ l.a.l.a.a.k.l.a.a.a.l.a.a.l.l.r.^ ^ ^ ^ ^ ^ ^ ^ ^ Q M M h + +                             ",
"            : N v v v v b v N M M N N ^ Q Q ^ Q Q Q Q ^ ^ ^ ^ ^ Q ^ Q v v M v M v v v v M h + +                                 ",
"            : v v b h h x v v v M ^ B ^ Q Q B ^ Q Q Q Q B ^ Q Q Q N h + @ + + + + @ + + + +                                     ",
"            . + + + X X > v v v v n n n n n n n v H n n v v v n M h +                                                           ",
"                          + + + + + + + X + + + o + + + + + + + o X                                                             ",
"                                                                                                                                ",
"                                                                                                                                "
};
