/* XPM */
static char *output_onlinepngtools__1_1703793679[] = {
/* columns rows colors chars-per-pixel */
"64 64 67 1 ",
"  c None",
". c #464236",
"X c #4C453A",
"o c #4E493D",
"O c #50493E",
"+ c #534D42",
"@ c #584F48",
"# c #565246",
"$ c #595247",
"% c #56524A",
"& c #5B554B",
"* c #5E584E",
"= c #5C5751",
"- c #5D5953",
"; c #60594E",
": c #655E55",
"> c #655F59",
", c #676055",
"< c #686156",
"1 c #666159",
"2 c #6A645B",
"3 c #6F695E",
"4 c #716A5F",
"5 c #6C6660",
"6 c #6E6961",
"7 c #6F6D69",
"8 c #726B61",
"9 c #746E69",
"0 c #767166",
"q c #797267",
"w c #767169",
"e c #7B756C",
"r c #7E7A6E",
"t c #7C7671",
"y c #7E7973",
"u c #7F7B78",
"i c #80776D",
"p c #81796F",
"a c #807770",
"s c #837C74",
"d c #847E79",
"f c #888176",
"g c #86817A",
"h c #8A847E",
"j c #8C887F",
"k c #90877E",
"l c #878581",
"z c #8C8681",
"x c #8E8982",
"c c #8F8E88",
"v c #908781",
"b c #928B84",
"n c #948E89",
"m c #989186",
"M c #96918B",
"N c #9A948D",
"B c #9D9691",
"V c #9E9892",
"C c #A1988E",
"Z c #A19A94",
"A c #A39E99",
"S c #A5A19C",
"D c #AAA39D",
"F c #ABA6A0",
"G c #AEA9A3",
"H c #B0ABA5",
"J c #C0BAB4",
/* pixels */
"                                                                ",
"                                                                ",
"                                                                ",
"           u675256679udghz                                      ",
"          t>>>5>126edldsgdBB                                    ",
"         d>>>>>7yflfgdddugVBVV                                  ",
"        u>::3edgddssdsdsymABVBV                                 ",
"       u2188ydssssdsdddsyNZVVVVcdlccMVF                         ",
"      u-2yrdsssssssssdsdzVBVZBbdudududgggyw58w9en               ",
"      -=udfpsssssssfssdzBVBBBmdpgyygyrrrww67846eVAB             ",
"     7=7dsssssspssssssvBABVBMdsprrrfr0880488q4qkVZBF            ",
"     2-rsssssssspssssbCZBBBbfpspffrrse88448848fCBVVBB           ",
"     %9gssssssssssssvVCBBmlddpssyfsdsse884883rCCZZVvuu          ",
"     %edssssssssdddmZBZNnhssddsssssssssq06370jSBVnzdadu         ",
"     2sspssssssssdmZZBnzsdssdssssssssssiw860gBmmbddadyfyl       ",
"     rssssssssssdnCmbzssddddssssssspssspu00gcjfgdsddsdyduu      ",
"     dudsssssspkmCbksssdssssssssssspssssgerhjfssddaddadsdd      ",
"    lugypssspskmmdsppssssdssssdssssssssssysfspsdddaddddduv      ",
"    guyyspsssskkdsadsssssssssssssssssssssssssspddddddsdaeBV     ",
"    ugygspsskkspssdsssspspdaqssssssssssssssspsssddaddaz9dVV     ",
"   gguuuspsssspddpssssssdssrisssssssssssssssssspaddadd9tMVV     ",
"   uuugusssfsssdsssssssssdqesspsssssssssssssssssaddddatvVVV     ",
"   tuyryssssdpspssssssssss8qsssssssssppssssspsddudddtdnBVVVV    ",
"  20jMNxdsssssssssssssdpaarsssdsfspsssdssssrddiaddaavZZBVVBS    ",
"  1,29dCZdsdssspssssssss4pdsdsspsspsssssssadissdaavBAVCVVVBA    ",
"  :,2:2>yzfssddsssfsssss:spsfsssssddsssssssaareqdnZZBBBZBVSNz   ",
" 91::::2:6bfsaasssssssde;ssdssssprrriaqrerqeq9hZAZNZZZBBVVFxu   ",
" 1:<:2::>2:ikkddsssfdsd>;sssdddsssassdfdhvzfbCAZZZZBBBVVVVFbu   ",
" 1,1;1<<:>2:iNNvkkvbfja&>sdfvhhfhfjhjbbjvbbbAABNZZNZZVZZCZAbuz  ",
" 1,,,1:,>>:2;qmmkvjkvvd>ifhzzhhhzhhhhhhhhhzhnZBZCBZZCZZZVANztd  ",
"21:,,,;,:<::>:8bmfvkzhv9hvhhhhhzzhzhhzhhzhzzvAZZBBBZZZVBZAnfaa  ",
"11:,1,,,::::>>:8mbdjvjbyvzhhhhhhhzhhzhhhzzdvdZNZZZZNBZVVZnMdas  ",
" ;:1<,:,,::>::1:0ZmhdhzdzgzzlzzzzzzzzlzzlzzxlBBZCVVZZZZZBlNsisd ",
" &&,1:,::>>:<1:<>ammzzzdghghhhlhhzzhhzzghlhzhlBCVVCBZNZCndNaaas ",
" &&;::,,,,:::111:>6dnzhzzzhhhzhzhzgjlhlhhhhhzgnZBBZVBBZBxlNtpsa ",
" #$&*;:,::212:;::>:2ynvdgzllghhzzhllhhzhhlhhzhzAZVZVZZZNxxvaiay ",
" &%&&&::<,<:,,,1>>2::idvzhhhljhhhhhjlljhlhlhhjzDBZZZZZBvlndsiae ",
" *&&&&$:<,><,,11>:>:>>8edzlhdhzhzzhlhhzhhhhhdzhFCBZBNZNzxbeaisyl",
" ,&&&$$;;;<<<,,,:2::>>>>5edhzzjlhzzhzhhhhzhhhzjZZZBBZZnhzbeeiisu",
" 3&&$;&&$;:2333<;:::::>>>>58sjhllzzlhhjlhzhzzjznVBBZDNzzgxr8ardu",
"  %&&=&&;;;;;;fksiii444><,,,,0yghzhhhzzzhhgzzlznZNZANchgxxr00psw",
"  =&%==&O;O;;O;kkissiqq444333259udhhzdhhhhhldhhnZZSbhhzhBgp00edt",
"  *&&&&=;;;O;;Oi4<448486884440669wdgvvdvzjghfhbZHAMhggbzVtd080ye",
"  %&&=&&O;;;;O,fi444844884844488758eidddvbbnNNDJGxlzlxlgMtre60yt",
"  %==@=&&&&;;&&pq4444444488888843886888qeiasfhZDblhzzjgnhyre:4pr",
"  >@%==&&&O;$&;iq84888484888888q88898666688686kvfhlhjhhByrrr22rt",
"  >&==&&&&#&$&$q484884488888484886968884456688hvzhhhhlhBuyppr6et",
"   ;&@&=&&&&$&$i444448844844844896633238889890ddddghzhzMrdery1wt",
"   %=&&=@&&$&&#r3344448844844444q88433222>:;:6ssddhhvhvdtaeps<: ",
"   &>;=&&&$#&&&r4444848888484q4q448444443356::akjhjlvznttus0f:  ",
"   =:&=&;$&&#&#044484888488444q4484444884804qqshhhhhdvbsuyrie3  ",
"   :1:*&&$$&&&#334488848q4884444484444888069ddhkzjzlzvmsyars8   ",
"   12>1-;&;O&*#<8888848844q4444484888484q88ihkdzzzzhdvbdersd    ",
"   12>-=$&;;&#*&;<8803384444444q4884484888edzhhvzzzzzndasry     ",
"   5=-*&&$;;;O&OOO,8338844q484444484484840svvzzzzzdzhNvipi      ",
"   5>%&&&;O;;&*&OOO,843344444q44444q84848ikdzvdzzzvzzNaddh      ",
"    -=%&O;&#*&&OOOoO,34844q444q4q4444q44qskhhhhdzzzzhMury       ",
"    =&&=*;&&&&;;&Oo#<O&34444444444q44444qfhkkhhzzzhlhnyu        ",
"     %=&*&&&;$;O&#o-8,oO<444q4444q444444pkfkkjjvzzhhlMu         ",
"       %&#;&O;&;#&#183OO$44q444q44444q44shkhhjhhzzzlxn          ",
"         %&&;$$;%&%330<O.;44q44444444q4qffkhhzzzzvhhxc          ",
"            ;;&&*%#3330,OO,444444q444444fhfkhzzzzzzv            ",
"              ,&%-%33384,OO4444444q4444qshhjhhllhn              ",
"                >*%3734442O$44444q444444sjhzhzxB                "
};
